<?xml version="1.0" encoding="utf-8"?>
<!-- Generator: Adobe Illustrator 23.0.3, SVG Export Plug-In . SVG Version: 6.00 Build 0)  -->
<svg version="1.1" id="Layer_1" xmlns="http://www.w3.org/2000/svg" xmlns:xlink="http://www.w3.org/1999/xlink" x="0px" y="0px"
	 viewBox="0 0 48.8 71.9" style="enable-background:new 0 0 48.8 71.9;" xml:space="preserve">
<style type="text/css">
	.st0{fill:#181819;}
	.st1{fill:#E07B71;}
</style>
<title>Asset 3</title>
<g>
	<g>
		<g id="Layer_1-2_8_">
			<path class="st0" d="M3,69h42.1c-3-12.2-7-19.5-25.7-19.5H19c-1.5,0-2.8,0-4.1,0C10,49.4,6.3,49.3,4.5,51c-1,1-1.5,2.8-1.5,5.4
				V69z M48.9,72H0V56.4c0-3.5,0.8-5.9,2.4-7.5c2.7-2.6,7-2.5,12.5-2.4c1.3,0,2.7,0,4.1,0c10.3,0,17.3,2.1,21.8,6.7
				c4.3,4.4,6,10.5,7.6,16.9L48.9,72z"/>
			<path class="st0" d="M18.2,3h-2C8.5,3,5.9,3.7,4.6,5.9C3,8.7,3,14.3,3,24.5c0,9.5,0,15.2,1.6,18C6,44.9,8.8,45.8,16.3,46
				c2.3,0,4.9,0,8,0c11.9-0.5,21.1-10.6,20.6-22.4C44.4,12.4,35.4,3.5,24.3,3H18.2 M24.3,49c-3.1,0-5.7,0-8-0.1
				c-7.7-0.2-12-1-14.3-4.9c-2-3.5-2-9.2-2-19.5C0,13.4,0,7.8,2,4.4c2.4-4,7.1-4.3,14.2-4.4h8c13.5,0,24.5,11,24.5,24.5
				S37.7,49,24.3,49"/>
			<path class="st0" d="M3,3h11.7v66H3V3z M0,72h17.7V0H0V72z"/>
		</g>
	</g>
</g>
<rect x="-1084" y="-807" class="st1" width="1017" height="1181"/>
</svg>
