<svg xmlns="http://www.w3.org/2000/svg" viewBox="0 0 82.41 36.69"><defs><style>.cls-1,.cls-2{fill:#14355b;}.cls-2{font-size:11.04px;font-family:OpenSans-SemiBold, Open Sans;font-weight:600;}</style></defs><title>plp-b</title><g id="Layer_2" data-name="Layer 2"><g id="Layer_1-2" data-name="Layer 1"><path class="cls-1" d="M21.69,10.4l-.45-3.81L18.28,9a5.51,5.51,0,0,1,1.82.39A5,5,0,0,1,21.69,10.4Z"/><path class="cls-1" d="M22,13.93c.51-1.28-.49-2.89-2.24-3.59s-3.59-.24-4.11,1l-1.11,2.79a.52.52,0,0,1-.49.31c-3.35,9.1-2.95,13-1.8,14.54,1.94-.35,4.89-2.85,8.76-11.75a.5.5,0,0,1-.13-.56Z"/><text class="cls-2" transform="translate(32.26 10.55)">Physician<tspan x="0" y="10.71">Learning</tspan><tspan x="0" y="21.43">Program</tspan></text><path class="cls-1" d="M24,1.13,22.14,5.69l.77,6.43v.05a3,3,0,0,1,0,2.13l-1.11,2.79a.53.53,0,0,1-.29.28c-3.17,7.31-6.16,11.36-8.89,12.07a3.71,3.71,0,0,0,3.34.6c0-.08.06-.14.18-.18l.46-.15a.69.69,0,0,1,.46-.47l.71-.24a.6.6,0,0,1,.75.26l.14.4a.61.61,0,0,1-.45.66l-.71.24a.69.69,0,0,1-.65-.11l-.47.16a.23.23,0,0,1-.28-.08,4.2,4.2,0,0,1-3.87-.75c-.07-.07-.13-.16-.2-.23l-.3,0A4.16,4.16,0,0,1,8.4,27.45a.23.23,0,0,1-.26-.15l-.23-.43a.69.69,0,0,1-.54-.37L7,25.83a.59.59,0,0,1,.13-.78l.37-.2a.61.61,0,0,1,.73.33l.35.67a.68.68,0,0,1,0,.65l.23.44a.23.23,0,0,1,0,.25,3.7,3.7,0,0,0,2.82,1.88c-1.48-2.41-.84-7.4,1.93-14.88a.44.44,0,0,1,0-.39L14.7,11a3,3,0,0,1,1.48-1.56h0l5-4.12L23,.89A40.17,40.17,0,0,0,14,0,46.46,46.46,0,0,0,9,.25C5.59,3.76,5.71,9.43,5.81,10.91h0A2.74,2.74,0,1,1,5,11C4.87,9.58,4.7,4.21,7.75.4,2.17,1.16,0,2.77,0,2.77v19.7c0,8.12,9.24,14.22,14,14.22s14-6.16,14-14.22V2.77A13,13,0,0,0,24,1.13Z"/><path class="cls-1" d="M5.69,15.37a1.66,1.66,0,1,1,1.66-1.66A1.65,1.65,0,0,1,5.69,15.37Zm0-2.95A1.29,1.29,0,1,0,7,13.71,1.29,1.29,0,0,0,5.69,12.42Z"/></g></g></svg>